<?xml version="1.0" encoding="UTF-8"?>
<svg width="16px" height="16px" viewBox="0 0 16 16" version="1.1" xmlns="http://www.w3.org/2000/svg" xmlns:xlink="http://www.w3.org/1999/xlink">
    <!-- Generator: Sketch 54.1 (76490) - https://sketchapp.com -->
    <title>icon_message复制</title>
    <desc>Created with Sketch.</desc>
    <g id="页面1" stroke="none" stroke-width="1" fill="none" fill-rule="evenodd">
        <g id="忘记密码" transform="translate(-568.000000, -392.000000)">
            <rect fill="#FFFFFF" x="0" y="0" width="1440" height="1325"></rect>
            <g id="绑定手机" transform="translate(530.000000, 196.000000)">
                <rect id="矩形" fill="#FFFFFF" x="0" y="0" width="380" height="535" rx="8"></rect>
                <g id="验证码" transform="translate(30.000000, 179.000000)">
                    <rect id="矩形复制" stroke="#DDDFE0" x="0.5" y="0.5" width="319" height="49" rx="4"></rect>
                    <g id="icon_message" transform="translate(8.000000, 17.000000)">
                        <rect id="Rectangle-7" fill-opacity="0" fill="#FFFFFF" x="0" y="0" width="16" height="16"></rect>
                        <g id="mail" transform="translate(0.984375, 1.984375)" fill="#000000" fill-opacity="0.25" fill-rule="nonzero">
                            <path d="M12.8921875,0.0140625 L1.125,0.0140625 C0.503125,0.0140625 -3.64153152e-13,0.5171875 -3.64153152e-13,1.1390625 L-3.64153152e-13,10.91875 C-3.64153152e-13,11.540625 0.503125,12.04375 1.125,12.04375 L12.8921875,12.04375 C13.5140625,12.04375 14.0171875,11.540625 14.0171875,10.91875 L14.0171875,1.1390625 C14.0171875,0.51875 13.5125,0.0140625 12.8921875,0.0140625 Z M12,1.0140625 L7.51822133,4.7788672 L7.49147442,4.80070677 L7.46807088,4.82590626 C7.35439652,4.94686384 7.20060181,5.01238253 7.03510532,5.0140625 C7.03343363,5.0140625 7.03343363,5.0140625 7.03176195,5.0140625 C6.86793714,5.0140625 6.71414243,4.94854381 6.60046807,4.83094616 L6.57706453,4.80742663 L2,1.0140625 L12,1.0140625 Z M12.9984068,11.0140625 L1,11.0140625 C1,11.0140625 1,11.0140625 1,11.0140625 L1,2.0140625 L5.82421668,5.77789086 C6.14922995,6.08261765 6.57620818,6.25006652 7.03505045,6.25006652 C7.03823686,6.25006652 7.03983006,6.25006652 7.04301646,6.25006652 C7.50345194,6.24855797 7.93361657,6.078092 8.25703664,5.76883957 L13,2.01557105 L13,11.0140625 C12.9984068,11.0140625 12.9984068,11.0140625 12.9984068,11.0140625 Z" id="Shape"></path>
                        </g>
                    </g>
                </g>
            </g>
        </g>
    </g>
</svg>