<?xml version="1.0" encoding="UTF-8"?>
<svg width="16px" height="16px" viewBox="0 0 16 16" version="1.1" xmlns="http://www.w3.org/2000/svg" xmlns:xlink="http://www.w3.org/1999/xlink">
    <!-- Generator: Sketch 54.1 (76490) - https://sketchapp.com -->
    <title>icon_password</title>
    <desc>Created with Sketch.</desc>
    <g id="页面1" stroke="none" stroke-width="1" fill="none" fill-rule="evenodd">
        <g id="登录" transform="translate(-558.000000, -386.000000)">
            <rect fill="#FFFFFF" x="0" y="0" width="1440" height="1325"></rect>
            <g id="绑定手机" transform="translate(510.000000, 190.000000)">
                <rect id="矩形" fill="#FFFFFF" x="0" y="0" width="420" height="387" rx="8"></rect>
                <rect id="矩形复制" stroke="#DDDFE0" x="40.5" y="179.5" width="339" height="49" rx="4"></rect>
                <g id="icon_password" transform="translate(48.000000, 196.000000)">
                    <rect id="Rectangle-11" fill-opacity="0" fill="#FFFFFF" x="0" y="0" width="16" height="16"></rect>
                    <g id="lock" transform="translate(2.703125, 0.984375)" fill="#000000" fill-opacity="0.25" fill-rule="nonzero">
                        <path d="M9.90568483,3.42626164 C9.65033551,2.75974363 9.28871363,2.16346757 8.83262727,1.65616464 C8.3765409,1.14417891 7.84222613,0.739897494 7.24444303,0.455807852 C6.62599582,0.163913549 5.97212443,0.015625 5.29906494,0.015625 C4.62600545,0.015625 3.97065805,0.163913549 3.35221084,0.457368784 C2.75442774,0.739897494 2.22158898,1.14417891 1.76402661,1.65616464 C1.30351222,2.1697113 0.941890345,2.76598736 0.690969044,3.42626164 C0.429715689,4.1099499 0.296875,4.83734426 0.296875,5.58971353 L0.296875,12.9292163 C0.296875,13.5286142 0.735249273,14.015625 1.27546807,14.015625 L9.31823378,14.015625 C9.85845259,14.015625 10.2968269,13.5286142 10.2938748,12.9292163 L10.2938748,6.45134805 L10.2968269,6.15321002 L10.2968269,5.58971353 C10.2997789,4.84046612 10.1669382,4.11307176 9.90568483,3.42626164 Z M3.74123729,1.37523555 L3.74419478,1.37523555 L3.76341844,1.36738379 C4.24696742,1.13340138 4.76304875,1.015625 5.296875,1.015625 C5.82774376,1.015625 6.34530384,1.13497173 6.8318103,1.36424309 C7.30352934,1.59037374 7.73236483,1.91543656 8.10352934,2.32843907 C8.47765134,2.74772299 8.76896372,3.23296168 8.97450901,3.77316269 C9.18892676,4.33534862 9.296875,4.93208229 9.296875,5.55080088 L9.296875,6.015625 L1.296875,6.015625 L1.296875,6.015625 L1.296875,5.54923053 C1.296875,4.93679334 1.40482324,4.34005967 1.61924099,3.77316269 C1.82626502,3.22825063 2.12053489,2.74301193 2.49022066,2.33000942 C2.85842768,1.91857726 3.27691197,1.59665515 3.74123729,1.37523555 Z M9.296875,7.015625 L9.296875,12.9931531 C9.296875,13.0027839 9.29539708,13.0108096 9.29391915,13.015625 L1.29983085,13.015625 C1.29835292,13.0108096 1.296875,13.0027839 1.296875,12.9931531 L1.296875,7.015625 L9.296875,7.015625 Z" id="Shape"></path>
                    </g>
                    <rect id="矩形" fill="#B9BBBF" x="6" y="10" width="4" height="1"></rect>
                </g>
            </g>
        </g>
    </g>
</svg>