<?xml version="1.0" encoding="UTF-8"?>
<svg width="16px" height="16px" viewBox="0 0 16 16" version="1.1" xmlns="http://www.w3.org/2000/svg" xmlns:xlink="http://www.w3.org/1999/xlink">
    <!-- Generator: Sketch 54.1 (76490) - https://sketchapp.com -->
    <title>icon_message</title>
    <desc>Created with Sketch.</desc>
    <g id="页面1" stroke="none" stroke-width="1" fill="none" fill-rule="evenodd">
        <g id="登录" transform="translate(-558.000000, -312.000000)">
            <rect fill="#FFFFFF" x="0" y="0" width="1440" height="1325"></rect>
            <g id="绑定手机" transform="translate(510.000000, 190.000000)">
                <rect id="矩形" fill="#FFFFFF" x="0" y="0" width="420" height="387" rx="8"></rect>
                <rect id="矩形" stroke="#DDDFE0" x="40.5" y="105.5" width="339" height="49" rx="4"></rect>
                <g id="icon_phonenumber" transform="translate(48.000000, 122.000000)">
                    <rect id="Rectangle-6" fill-opacity="0" fill="#FFFFFF" x="0" y="0" width="16" height="16"></rect>
                    <g id="mobile" transform="translate(2.953125, 0.984375)" fill="#000000" fill-opacity="0.25" fill-rule="nonzero">
                        <path d="M8.89639397,0.0125 L1.12860603,0.0125 C0.511647419,0.0125 0.0125,0.515625 0.0125,1.1375 L0.0125,12.9046875 C0.0125,13.5265625 0.511647419,14.0296875 1.12860603,14.0296875 L8.89639397,14.0296875 C9.51335258,14.0296875 10.0125,13.5265625 10.0125,12.9046875 L10.0125,1.1375 C10.0125,0.515625 9.51180243,0.0125 8.89639397,0.0125 Z M1.05234375,1.0125 L9.05234375,1.0125 L9.05234375,1.0125 L9.05234375,9.0125 L1.05234375,9.0125 L1.05234375,1.0125 C1.05234375,1.0125 1.05234375,1.0125 1.05234375,1.0125 Z M9.0125,13.0125 L1.0125,13.0125 C1.0125,13.0125 1.0125,13.0125 1.0125,13.0125 L1.0125,10.0125 L9.0125,10.0125 L9.0125,13.0125 C9.0125,13.0125 9.0125,13.0125 9.0125,13.0125 Z" id="Shape"></path>
                        <path d="M5.50956157,11.015625 L4.58418843,11.015625 C4.28717351,11.015625 4.046875,11.2392361 4.046875,11.515625 C4.046875,11.7920139 4.28717351,12.015625 4.58418843,12.015625 L5.50956157,12.015625 C5.80657649,12.015625 6.046875,11.7920139 6.046875,11.515625 C6.046875,11.2392361 5.80657649,11.015625 5.50956157,11.015625 Z" id="Shape"></path>
                    </g>
                </g>
            </g>
        </g>
    </g>
</svg>